<?xml version="1.0" standalone="no"?>
<!DOCTYPE svg PUBLIC "-//W3C//DTD SVG 20010904//EN"
 "http://www.w3.org/TR/2001/REC-SVG-20010904/DTD/svg10.dtd">
<svg version="1.0" xmlns="http://www.w3.org/2000/svg"
 width="500.000000pt" height="500.000000pt" viewBox="0 0 500.000000 500.000000"
 preserveAspectRatio="xMidYMid meet">
<metadata>
Created by potrace 1.11, written by Peter Selinger 2001-2013
</metadata>
<g transform="translate(0.000000,500.000000) scale(0.100000,-0.100000)"
fill="#000000" stroke="none">
<path d="M2397 4994 c-1 -1 -42 -4 -92 -8 -104 -8 -122 -10 -255 -32 -14 -3
-50 -10 -80 -16 -30 -6 -59 -12 -65 -14 -137 -28 -380 -120 -556 -210 -85 -43
-278 -163 -334 -206 -12 -9 -131 -106 -158 -128 -28 -23 -166 -159 -218 -216
-173 -188 -344 -457 -448 -707 -33 -81 -97 -265 -106 -307 -2 -8 -13 -53 -24
-100 -11 -47 -25 -121 -31 -165 -6 -44 -14 -91 -17 -105 -9 -41 -12 -481 -3
-535 4 -27 11 -77 14 -110 4 -33 11 -76 16 -95 5 -19 11 -48 14 -65 9 -53 17
-90 23 -110 4 -11 8 -25 9 -31 5 -32 70 -219 100 -292 228 -551 648 -1007
1180 -1277 167 -86 408 -176 534 -201 14 -3 45 -10 70 -15 180 -42 264 -48
560 -45 157 2 297 6 312 9 16 3 47 8 70 12 78 13 93 16 133 26 22 5 48 11 57
14 107 25 274 80 358 117 388 173 665 373 931 673 161 183 326 450 424 689 36
87 109 315 119 369 3 15 7 35 10 45 6 18 13 56 22 112 3 19 7 46 10 60 13 75
19 186 19 365 0 181 -4 245 -20 355 -3 19 -8 55 -11 79 -3 25 -7 48 -9 51 -2
4 -7 22 -10 41 -3 19 -11 52 -17 74 -5 22 -11 45 -12 50 -2 6 -9 30 -16 55 -7
25 -14 50 -16 55 -8 40 -86 232 -137 335 -233 482 -615 872 -1099 1125 -195
102 -495 207 -658 231 -19 3 -42 7 -50 9 -35 10 -130 22 -236 31 -72 6 -302
12 -307 8z"/>
</g>
</svg>
